<svg xmlns="http://www.w3.org/2000/svg" viewBox="0 0 195.41 139.49"><defs><style>.cls-1{fill:#84a5df;}.cls-2{fill:#324462;}.cls-3{fill:#b7d7e7;}.cls-4{fill:#fff;}.cls-5{fill:#486079;}.cls-6{fill:none;stroke:#486079;stroke-linecap:round;stroke-miterlimit:10;stroke-width:2px;}</style></defs><g id="Layer_2" data-name="Layer 2"><g id="Layer_1-2" data-name="Layer 1"><path class="cls-1" d="M14.21,45.11s0-6.4,8-6.4h116s-2.63,89.57-5.93,94"/><path class="cls-2" d="M85.61,5.21a7.69,7.69,0,0,0,3.2,8.7c3.6,2.3,8.7.5,10.7,4.3,1.5,2.9-.5,6.5-3.4,8s-6.2,1.4-9.4,1.3l-24.2-.9c-3.1-.1-6.8.1-8.2,2.8s.4,6,3.1,7.3,5.8,1,8.8.5a20.11,20.11,0,0,1,8.8.5c2.8.9,5.3,3,4.8,6-.8,3.9-5.8,4.9-9.7,5s-8.9,1.1-9.8,4.9c-.7,2.9,1.7,5.7,4.5,6.8s5.8.8,8.8.9a46.8,46.8,0,0,1,34.1,16.2c4.4,5.2,7.7,11.3,12.8,15.8,7.5,6.5,19.7,10.3,29,6.7,2.4-.9,4.1-4.6,3.9-7.2s-3.5-4-6.2-4.4-5.9-.9-7.1-3.4.5-5.3,2.9-6.5,5.1-1.2,7.7-1.1l23.9.6c3.7.1,7.1,1.3,10.3-.7s2.9-6.3.5-9.2c-1.8-2.1-5.8-1.8-8.5-2.3a5.38,5.38,0,0,1-4.7-5.3c-.1-3.1,4.2-4.5,7.3-4.3a34.17,34.17,0,0,0,10.6-1.1c4.4-1.3,6.4-7,4.7-11.3s-6.1-7-10.6-8-9.1-.5-13.7,0-10.8.7-15.2-.5a5.29,5.29,0,0,1-4.1-5.4c-.1-3.7,4.8-4.2,8.4-4.4,5.2-.3,10.1-.8,15.3-1.5s9-3.4,10.2-8.5a11.31,11.31,0,0,0-5.8-12.8c-4.7-2.3-10.1-2.5-15.3-2.6-21.9-.4-44,.5-65.9.1C93.21.11,87.71-.49,85.61,5.21Z"/><path class="cls-3" d="M8.86,129a20.21,20.21,0,0,1-2.5-7.89C4.67,104.73,0,55.81,0,55.81s-.7-10.5,9.8-10.2c9.2.2,18.1,0,20,0a1.45,1.45,0,0,1,.7.2l7.1,5.7a.84.84,0,0,0,.7.2l82.9.2s6.6-.8,7.1,9.5c.6,7,3.7,65.7,4,71a1.45,1.45,0,0,1-.2.7c-.9,1.3-4.8,6.1-10.2,6.3-4.88.16-68,.06-95.24,0A20.44,20.44,0,0,1,8.86,129Z"/><circle class="cls-4" cx="109.61" cy="9.61" r="1.6"/><circle class="cls-4" cx="153.81" cy="12.31" r="4.2"/><circle class="cls-4" cx="108.81" cy="28.01" r="3.1"/><circle class="cls-4" cx="135.31" cy="38.91" r="2"/><circle class="cls-4" cx="177.41" cy="44.81" r="2.1"/><circle class="cls-4" cx="141.71" cy="61.71" r="2.4"/><circle class="cls-4" cx="164.01" cy="68.91" r="2.7"/><circle class="cls-4" cx="97.61" cy="44.21" r="3.6"/><circle class="cls-4" cx="135.31" cy="76.71" r="1.6"/><circle class="cls-4" cx="157.51" cy="46.31" r="2"/><circle class="cls-4" cx="131.71" cy="19.61" r="1.5"/><circle class="cls-4" cx="120.31" cy="49.01" r="1.8"/><circle class="cls-4" cx="81.91" cy="32.11" r="0.7"/><circle class="cls-4" cx="145.71" cy="94.61" r="1.1"/><circle class="cls-4" cx="176.01" cy="18.21" r="1.5"/><circle class="cls-4" cx="93.31" cy="5.21" r="1.9"/><circle class="cls-5" cx="45.01" cy="92.61" r="3.2"/><circle class="cls-5" cx="87.41" cy="92.61" r="3.2"/><path class="cls-6" d="M53,112.71s12.3-12.5,26.3,0"/></g></g></svg>