<svg xmlns="http://www.w3.org/2000/svg" viewBox="0 0 512 512"><defs><style>.cls-1{fill:#a5c9ca;}</style></defs><g id="Layer_2" data-name="Layer 2"><g id="Layer_1-2" data-name="Layer 1"><path class="cls-1" d="M486.4,0H110.93a25.64,25.64,0,0,0-25.6,25.6V51.2H25.6A25.64,25.64,0,0,0,0,76.8V486.4A25.64,25.64,0,0,0,25.6,512H349.87a25.64,25.64,0,0,0,25.6-25.6v-384a34.13,34.13,0,0,1,68.26,0V401.07a34.14,34.14,0,0,0,68.27,0V25.6A25.64,25.64,0,0,0,486.4,0ZM136.53,477.87H51.2a8.54,8.54,0,0,1,0-17.07h85.33a8.54,8.54,0,1,1,0,17.07Zm34.14-42.67H51.2a8.54,8.54,0,0,1,0-17.07H170.67a8.54,8.54,0,0,1,0,17.07Zm0-42.67H51.2a8.53,8.53,0,0,1,0-17.06H170.67a8.53,8.53,0,1,1,0,17.06Zm0-42.66H51.2a8.54,8.54,0,0,1,0-17.07H170.67a8.54,8.54,0,0,1,0,17.07Zm0-42.67H51.2a8.54,8.54,0,0,1,0-17.07H170.67a8.54,8.54,0,0,1,0,17.07ZM59.73,256V145.07a8.54,8.54,0,0,1,8.54-8.54H307.2a8.53,8.53,0,0,1,8.53,8.54V256a8.52,8.52,0,0,1-8.53,8.53H68.27A8.53,8.53,0,0,1,59.73,256ZM273.07,477.87h-51.2a8.54,8.54,0,1,1,0-17.07h51.2a8.54,8.54,0,0,1,0,17.07Zm51.2-42.67H221.87a8.54,8.54,0,1,1,0-17.07h102.4a8.54,8.54,0,0,1,0,17.07Zm0-42.67H221.87a8.53,8.53,0,1,1,0-17.06h102.4a8.53,8.53,0,1,1,0,17.06Zm0-42.66H221.87a8.54,8.54,0,1,1,0-17.07h102.4a8.54,8.54,0,0,1,0,17.07Zm0-42.67H221.87a8.54,8.54,0,1,1,0-17.07h102.4a8.54,8.54,0,0,1,0,17.07Zm0-196.27H51.2a8.53,8.53,0,0,1,0-17.06H324.27a8.53,8.53,0,1,1,0,17.06ZM494.93,401.07a17.07,17.07,0,0,1-34.13,0V102.4a51.25,51.25,0,0,0-51.2-51.2H102.4V25.6a8.54,8.54,0,0,1,8.53-8.53H486.4a8.54,8.54,0,0,1,8.53,8.53V401.07Z"/></g></g></svg>